<?xml version="1.0" encoding="UTF-8" standalone="no"?>
<!-- Created with Inkscape (http://www.inkscape.org/) -->
<svg xmlns:rdf="http://www.w3.org/1999/02/22-rdf-syntax-ns#" xmlns="http://www.w3.org/2000/svg" height="99.337" viewBox="0 0 400.75684 99.337311" width="400.76" version="1.1" xmlns:cc="http://creativecommons.org/ns#" xmlns:dc="http://purl.org/dc/elements/1.1/">
 <metadata>
  <rdf:RDF>
   <cc:Work rdf:about="">
    <dc:format>image/svg+xml</dc:format>
    <dc:type rdf:resource="http://purl.org/dc/dcmitype/StillImage"/>
    <dc:title/>
   </cc:Work>
  </rdf:RDF>
 </metadata>
 <g transform="translate(-42.471 -696.03)">
  <g stroke="#000" stroke-width="1px" fill="none">
   <path d="m42.971 782.45c3.7345 0.64774 6.9099 2.4138 8.1168 8.1168 215.89 8.2165 265.78 2.5987 351.89 0 7.2046-2.1854 13.137-5.6429 15.279-12.891h-14.324l-3.8197-3.8197h-23.396l-7.9483 4.589-185.9-1.7242-6.1579-3.5552h-133.74z"/>
   <path d="m403.93 777.68 39.04-22.54"/>
   <path d="m388.41 773.86v-68.754"/>
   <path d="m104.56 773.17v-57.082"/>
   <path d="m375.04 713.22h26.738"/>
   <path d="m370.51 728.97h35.81"/>
   <path d="m366.45 747.12h43.926"/>
   <path d="m410.38 747.12c2.3608 7.1808 6.1737 14.569 0 20.531-15.379-3.9007-28.992-0.74116-43.21 0 3.9206-4.348 7.795-8.7237-0.7162-20.531"/>
   <path d="m370.51 728.97c5.2626 10.433 2.0676 13.819 0 18.143"/>
   <path d="m406.32 728.97c2.0676 5.014 5.2626 9.4644 0 18.143"/>
   <path d="m375.04 713.22c7.1803 8.4433 4.0936 12.324 0 15.756"/>
   <path d="m401.78 713.22c3.7024 10.806 1.0727 12.113 0 15.756"/>
   <path d="m408.59 734.55 34.381 20.585"/>
   <path d="m408.78 741.53 19.258 22.229"/>
   <path d="m413.72 759.51h10.642"/>
   <path d="m418.41 752.64 24.562 2.493"/>
   <path d="m104.56 766.69-56.814-8.59c6.5443-8.2722 13.483-16.466 7.6394-27.215l49.178 21.963"/>
   <path d="m99.218 750.46c1.6927-1.7456 8.1282-2.0684 22.534 0 3.8617-5.751 5.0189-13.047 0-23.873h-34.377c6.1762 9.6258 5.2677 15.316 0 18.584"/>
  </g>
  <g stroke="#000" stroke-width="1px" fill="none">
   <path d="m197.67 776.86v-80.828"/>
   <path d="m177.62 706.53h40.107"/>
   <path d="m169.26 730.88h56.818"/>
   <path d="m169.26 730.88c10.399 19.226 0.90101 20.546 0 29.603 21.811-3.4298 40.956-4.1935 55.143 0 4.0284-8.8604 6.0684-18.218 0-29.603"/>
   <path d="m177.62 706.53c3.3906 8.7949 2.9697 16.828 0 24.35"/>
   <path d="m217.72 706.53c1.586 6.2137 4.475 10.864 0 24.35"/>
  </g>
  <g transform="translate(93.496 2)" stroke="#000" stroke-width="1px" fill="none">
   <path d="m197.67 776.86v-80.828"/>
   <path d="m177.62 706.53h40.107"/>
   <path d="m169.26 730.88h56.818"/>
   <path d="m169.26 730.88c10.399 19.226 0.90101 20.546 0 29.603 21.811-3.4298 40.956-4.1935 55.143 0 4.0284-8.8604 6.0684-18.218 0-29.603"/>
   <path d="m177.62 706.53c3.3906 8.7949 2.9697 16.828 0 24.35"/>
   <path d="m217.72 706.53c1.586 6.2137 4.475 10.864 0 24.35"/>
  </g>
  <g fill="#fff">
   <path d="m186.79 793.71c-33.171-0.52768-87.462-2.0296-119.6-3.3087-6.4338-0.25604-12.577-0.46769-13.651-0.47034-1.8504-0.005-1.9826-0.10162-2.5026-1.8373-0.69256-2.3116-3.2876-5.0162-5.3899-5.6176l-1.6129-0.46134-0.13795-4.1611-0.13795-4.1611h66.238 66.238l3.1313 1.8562 3.1313 1.8562 53.953 0.54349c29.674 0.29892 71.69 0.67554 93.368 0.83695l39.415 0.29346 3.7851-2.2157 3.7851-2.2157h11.492 11.491l1.8529 1.8976 1.8529 1.8976 6.8146 0.13165 6.8146 0.13164-0.80593 1.6711c-1.3274 2.7523-4.6514 5.6698-8.5921 7.5412-3.6339 1.7257-3.7628 1.7487-11.796 2.1039-9.3755 0.41451-53.117 2.057-73.773 2.7701-38.979 1.3457-87.698 1.6761-135.36 0.91788z"/>
   <path d="m76.737 761.78c-21.101-3.2468-26.944-4.2933-26.828-4.8052 0.08169-0.35993 0.75162-1.4208 1.4887-2.3574 5.715-7.262 7.9037-14.287 6.249-20.057-0.25811-0.89999-0.39863-1.707-0.31227-1.7934s10.611 4.5137 23.387 10.222l23.23 10.379v6.3378c0 3.4858-0.0537 6.3122-0.11937 6.2809-0.0657-0.0313-12.259-1.9247-27.096-4.2076z"/>
   <path d="m93.527 747.15-4.4577-2.1107 1.2223-1.4526c2.6902-3.1972 2.6544-7.8611-0.10346-13.465l-1.3511-2.7454h7.558 7.558v10.422 10.422l-2.4237 0.55946c-1.333 0.3077-2.6759 0.54176-2.9841 0.52013-0.30822-0.0216-2.5664-0.98914-5.0181-2.15z"/>
   <path d="m116.37 749.07c-2.4947-0.33578-5.9862-0.6289-7.7587-0.65137l-3.2229-0.0409v-10.504-10.504h8.0536 8.0536l1.3353 3.939c1.92 5.6641 1.9256 11.309 0.0154 15.517-0.74501 1.6413-1.4864 2.955-1.6475 2.9193-0.16109-0.0357-2.334-0.33955-4.8288-0.67533z"/>
   <path d="m178.91 729.95c0-0.15905 0.3607-1.6093 0.80156-3.2228 1.0723-3.9247 1.0723-11.969 0-15.894-0.44086-1.6135-0.80156-3.0638-0.80156-3.2228 0-0.15905 4.0823-0.28918 9.0717-0.28918h9.0717v11.459 11.459h-9.0717c-4.9895 0-9.0717-0.13013-9.0717-0.28918z"/>
   <path d="m198.49 718.78v-11.479l9.3867 0.12946 9.3867 0.12946 0.9403 3.1035c1.2596 4.1574 1.2647 11.377 0.0112 15.995l-0.90722 3.3422-9.4089 0.12946-9.4089 0.12945v-11.479z"/>
   <path d="m220.93 758.85c-3.6069-0.89646-12.711-1.8742-17.452-1.8742h-4.9889v-12.653-12.653h12.857 12.857l1.0334 2.7454c1.2903 3.4277 2.3608 8.3534 2.3608 10.862 0 2.5236-1.1533 7.9224-2.4225 11.34-1.0814 2.9119-1.2194 2.9844-4.2454 2.2323z"/>
   <path d="m170.32 758.81c0-0.3783 0.90716-2.5027 2.0159-4.721 1.9645-3.9303 2.016-4.155 2.0208-8.8078 0.005-4.8096-0.27798-5.8924-3.3997-13.011-0.20584-0.46937 2.5532-0.59682 12.92-0.59682h13.181v12.588 12.588l-5.1327 0.34202c-4.5235 0.30144-8.1513 0.6814-18.86 1.9753-2.2252 0.26889-2.7454 0.20142-2.7454-0.35608z"/>
   <path d="m263.73 760.95c0.16242-0.47673 1.1734-2.8005 2.2467-5.1639 2.5028-5.5114 2.8246-9.0802 1.278-14.172-0.57969-1.9085-1.5739-4.496-2.2093-5.75l-1.1554-2.28h13.377 13.377v12.653 12.653l-1.0743 0.005c-3.6048 0.0165-23.339 2.1062-25.302 2.6793-0.63663 0.1858-0.76306 0.039-0.53724-0.6238z"/>
   <path d="m314.76 760.96c-3.7905-0.98399-9.0622-1.6137-16.124-1.9262l-6.5651-0.29046v-12.579-12.579h12.643 12.643l0.92804 1.8191c1.6195 3.1745 2.5657 7.724 2.5511 12.266-0.0112 3.4912-0.29532 5.1669-1.5148 8.9345-0.8255 2.5506-1.6545 4.7128-1.8423 4.8051-0.18777 0.0922-1.4111-0.10998-2.7185-0.44938z"/>
   <path d="m292.07 720.69v-11.459h9.292 9.292l0.74912 2.5067c1.8092 6.054 1.8038 11.575-0.0175 17.905l-0.7213 2.5067h-9.2971-9.2971v-11.459z"/>
   <path d="m272.73 730.26c1.8184-5.154 1.8272-13.959 0.0189-19.084l-0.68579-1.9438h9.2893 9.2893v11.459 11.459h-9.2893-9.2893l0.66685-1.89z"/>
   <path d="m378.49 726.35c1.1072-1.5284 1.433-2.4837 1.4249-4.1778-0.0107-2.2325-1.3302-5.7894-2.7158-7.3204-0.72637-0.80262-0.49027-0.84414 4.8008-0.84414h5.5648v7.1619 7.1619h-5.255-5.2551l1.4354-1.9815z"/>
   <path d="m389 721.17v-7.1619h6.1845 6.1845l0.5306 1.7905c1.0208 3.4446 1.1213 7.4639 0.25222 10.081l-0.81468 2.4528h-6.1686-6.1686v-7.1619z"/>
   <path d="m428.43 752.98-9.506-1.016-4.6586-5.2701-4.6586-5.2701 0.31828-2.5248 0.31829-2.5248 14.801 8.8658c8.1407 4.8762 14.372 8.8411 13.846 8.8109-0.52521-0.0302-5.2326-0.51208-10.461-1.0709z"/>
   <path d="m389 738.12v-8.3556h8.4832 8.4832l1.1853 2.9841c1.5477 3.8964 1.5571 7.7595 0.0273 11.22l-1.108 2.5067h-8.5355-8.5355v-8.3556z"/>
   <path d="m413.53 754.7c-1.4872-6.1326-2.4571-7.9574-4.3258-8.1386-1.5108-0.14649-1.514-0.15264-0.87555-1.6711 0.35245-0.83824 0.73123-1.5241 0.84173-1.5241 0.28479 0 13.249 14.919 13.249 15.247 0 0.14867-1.7726 0.26766-3.939 0.26442l-3.939-0.006-1.0117-4.1719z"/>
   <path d="m371.81 746.21c0-0.14176 0.47824-1.1623 1.0628-2.2679 1.4293-2.7034 1.4147-7.6244-0.0334-11.321-0.56586-1.4443-1.029-2.6798-1.0291-2.7454-0.00013-0.0657 3.5449-0.11936 7.8778-0.11936h7.8781v8.3556 8.3556h-7.8781c-4.333 0-7.8781-0.11599-7.8781-0.25775z"/>
   <path d="m370.71 764.26c1.0978-1.8675 1.3331-2.8278 1.3331-5.4392 0-2.7766-0.24611-3.6529-1.9779-7.0425l-1.9779-3.8713h9.7366 9.7366v8.5726 8.5726l-1.5517 0.23826c-2.3343 0.35842-12.916 1.2374-14.896 1.2374h-1.7355l1.3331-2.2679z"/>
   <path d="m406.9 766.18c-1.5756-0.35289-6.2488-0.77126-10.385-0.92969l-7.52-0.28806v-8.5266-8.5266h10.482 10.482l1.4548 4.5416c1.6365 5.109 1.8753 8.9905 0.70481 11.457-1.2947 2.7283-1.9356 3.0074-5.2183 2.2722z"/>
   <path d="m406.9 766.18c-1.5756-0.34802-6.2488-0.76799-10.385-0.93328l-7.52-0.30052v-8.523-8.523h10.482 10.482l1.4548 4.5416c2.1193 6.6161 1.8523 11.487-0.74724 13.628-0.78967 0.65052-1.2567 0.66415-3.7662 0.10985z"/>
  </g>
 </g>
</svg>
