<?xml version="1.0" encoding="UTF-8" standalone="no"?>
<!-- Created with Inkscape (http://www.inkscape.org/) -->
<svg xmlns:rdf="http://www.w3.org/1999/02/22-rdf-syntax-ns#" xmlns="http://www.w3.org/2000/svg" height="99.883" viewBox="0 0 500.78159 99.88269" width="500.78" version="1.1" xmlns:cc="http://creativecommons.org/ns#" xmlns:dc="http://purl.org/dc/elements/1.1/">
 <metadata>
  <rdf:RDF>
   <cc:Work rdf:about="">
    <dc:format>image/svg+xml</dc:format>
    <dc:type rdf:resource="http://purl.org/dc/dcmitype/StillImage"/>
    <dc:title/>
   </cc:Work>
  </rdf:RDF>
 </metadata>
 <g transform="translate(.14946 -711.44)">
  <g transform="translate(-27.684 -114.79)">
   <path d="m28.908 907.51c12.994 7.2303 22.631 13.51 26.201 18.07h418.45c10.09-6.5601 23.505-7.9918 26.057-26.173-16.253 8.3174-32.97 10.234-45.217 0.67523h-110.36l-7.664 4.0514-151.75 0.67523-18.393-10.128-137.33 0.67523z" stroke="#000" stroke-width="1.0654px" fill="none"/>
   <path d="m465.72 905.53 62.32-41.91" stroke="#000" stroke-width="1px" fill="none"/>
   <g stroke="#000" fill="none">
    <path d="m425.4 900.08 0.67523-64.147" stroke-width="1px"/>
    <path d="m414.54 841.73h22.918" stroke-width=".77219px"/>
    <path d="m411.71 857.17h28.17" stroke-width="0.803px"/>
    <path d="m406.84 872.2h37.719c3.3699 6.9262 1.5796 13.852 0 20.779-26.961-5.4372-27.244-0.89698-37.564 0 4.246-6.9262 3.3722-13.852 0-20.779z" stroke-width=".86947px"/>
    <g stroke-width="1px">
     <path d="m411.71 857.17c4.0021 3.9014 1.4667 10.529 0 15.038"/>
     <path d="m439.88 857.17c3.0089 3.9699 2.0443 10.437 0 15.038"/>
     <path d="m414.54 841.73c2.2333 4.8257 2.223 9.9719 0 15.434"/>
     <path d="m437.45 841.73c2.5494 5.1448 3.7662 10.29 0 15.434"/>
    </g>
   </g>
   <g stroke="#000" stroke-width="1px" fill="none">
    <path d="m441.39 867.49 27.232 19.765-22.613-1.1847"/>
    <path d="m468.62 887.25 10.783 9.0766"/>
    <path d="m439.88 857.17 54.207 29.29"/>
    <path d="m482.05 879.95-23.981-0.35615"/>
    <path d="m439.75 851.62 71.268 23.447"/>
    <path d="m495.64 870-28.662 1.8074"/>
    <path d="m89.405 895.02 0.83526-48.111"/>
    <path d="m74.56 856.25h31.035"/>
    <path d="m89.601 883.69-60.693-7.6083c11.118-7.5869 18.184-15.889 7.8562-27.26l53.058 22.146"/>
    <path d="m74.56 856.25c0.88647 2.8409 4.1924 5.6818 0.43718 8.5227"/>
    <path d="m105.6 856.25c3.4081 6.4342 2.3803 12.868-0.55395 19.303 1.5654-1.2601-15.029-4.3599-15.254-2.5574"/>
    <path d="m105.04 875.55h-15.299"/>
   </g>
   <g transform="translate(20)" stroke="#000" fill="none">
    <path d="m166.11 904.81 1.0043-78.235" stroke-width="1px"/>
    <path d="m139.15 865.69h54.908" stroke-width="1px"/>
    <path d="m190.76 844.02h-47.746" stroke-width=".95783px"/>
    <g stroke-width="1px">
     <path d="m188.04 832.58h-42.016"/>
     <path d="m194.06 865.69c4.9309 7.6141 4.9724 15.673 0 24.187-28.627-8.524-38.975-2.0916-54.628 0 3.9757-7.5323 9.0855-14.913 0-24.187"/>
     <path d="m143.01 844.02c6.0731 13.297 1.4021 15.849 0 21.67"/>
     <path d="m190.76 844.02c4.5436 9.4952 2.5336 15.714 0 21.67"/>
     <path d="m146.03 832.58c5.3015 4.9931 2.5964 8.2069 0 11.445"/>
     <path d="m188.04 832.58c2.1815 3.815 3.1803 7.6299 0 11.445"/>
    </g>
   </g>
   <g transform="translate(163.18 -2.1484e-7)" stroke="#000" fill="none">
    <path d="m166.11 904.81 1.0043-78.235" stroke-width="1px"/>
    <path d="m139.15 865.69h54.908" stroke-width="1px"/>
    <path d="m190.76 844.02h-47.746" stroke-width=".95783px"/>
    <g stroke-width="1px">
     <path d="m188.04 832.58h-42.016"/>
     <path d="m194.06 865.69c4.9309 7.6141 4.9724 15.673 0 24.187-28.627-8.524-38.975-2.0916-54.628 0 3.9757-7.5323 9.0855-14.913 0-24.187"/>
     <path d="m143.01 844.02c6.0731 13.297 1.4021 15.849 0 21.67"/>
     <path d="m190.76 844.02c4.5436 9.4952 2.5336 15.714 0 21.67"/>
     <path d="m146.03 832.58c5.3015 4.9931 2.5964 8.2069 0 11.445"/>
     <path d="m188.04 832.58c2.1815 3.815 3.1803 7.6299 0 11.445"/>
    </g>
   </g>
   <g transform="translate(94.397 -.33762)" stroke="#000" fill="none">
    <path d="m166.11 904.81 1.0043-78.235" stroke-width="1px"/>
    <path d="m139.15 865.69h54.908" stroke-width="1px"/>
    <path d="m190.76 844.02h-47.746" stroke-width=".95783px"/>
    <g stroke-width="1px">
     <path d="m188.04 832.58h-42.016"/>
     <path d="m194.06 865.69c4.9309 7.6141 4.9724 15.673 0 24.187-28.627-8.524-38.975-2.0916-54.628 0 3.9757-7.5323 9.0855-14.913 0-24.187"/>
     <path d="m143.01 844.02c6.0731 13.297 1.4021 15.849 0 21.67"/>
     <path d="m190.76 844.02c4.5436 9.4952 2.5336 15.714 0 21.67"/>
     <path d="m146.03 832.58c5.3015 4.9931 2.5964 8.2069 0 11.445"/>
     <path d="m188.04 832.58c2.1815 3.815 3.1803 7.6299 0 11.445"/>
    </g>
   </g>
   <g transform="translate(-293.67 -5.2322)" stroke="#000" fill="none">
    <path d="m425.4 900.08 0.67523-64.147" stroke-width="1px"/>
    <path d="m414.54 841.73h22.918" stroke-width=".77219px"/>
    <path d="m411.71 857.17h28.17" stroke-width="0.803px"/>
    <path d="m406.84 872.2h37.719c3.3699 6.9262 1.5796 13.852 0 20.779-26.961-5.4372-27.244-0.89698-37.564 0 4.246-6.9262 3.3722-13.852 0-20.779z" stroke-width=".86947px"/>
    <g stroke-width="1px">
     <path d="m411.71 857.17c4.0021 3.9014 1.4667 10.529 0 15.038"/>
     <path d="m439.88 857.17c3.0089 3.9699 2.0443 10.437 0 15.038"/>
     <path d="m414.54 841.73c2.2333 4.8257 2.223 9.9719 0 15.434"/>
     <path d="m437.45 841.73c2.5494 5.1448 3.7662 10.29 0 15.434"/>
    </g>
   </g>
   <g transform="translate(-42.659)" stroke="#000" fill="none">
    <path d="m425.4 900.08 0.67523-64.147" stroke-width="1px"/>
    <path d="m414.54 841.73h22.918" stroke-width=".77219px"/>
    <path d="m411.71 857.17h28.17" stroke-width="0.803px"/>
    <path d="m406.84 872.2h37.719c3.3699 6.9262 1.5796 13.852 0 20.779-26.961-5.4372-27.244-0.89698-37.564 0 4.246-6.9262 3.3722-13.852 0-20.779z" stroke-width=".86947px"/>
    <g stroke-width="1px">
     <path d="m411.71 857.17c4.0021 3.9014 1.4667 10.529 0 15.038"/>
     <path d="m439.88 857.17c3.0089 3.9699 2.0443 10.437 0 15.038"/>
     <path d="m414.54 841.73c2.2333 4.8257 2.223 9.9719 0 15.434"/>
     <path d="m437.45 841.73c2.5494 5.1448 3.7662 10.29 0 15.434"/>
    </g>
   </g>
   <g fill="#fff">
    <path d="m50.73 920.44c-2.731-2.2138-8.5802-6.1641-12.998-8.7785l-8.0328-4.7534v-5.2692-5.2692l68.052-0.50281 68.052-0.50281 9.3516 5.2302 9.3516 5.2302 76.251-0.50371 76.251-0.50371 3.5056-1.933 3.5056-1.933 54.693-0.0122 54.693-0.0122 5.6554 2.8676c5.4936 2.7855 5.8704 2.8742 13.168 3.0994 8.4921 0.26207 13.912-0.72284 21.483-3.904l4.6846-1.9682-0.45325 2.1471c-0.74249 3.5172-3.795 8.5503-6.7016 11.05-1.4973 1.2877-6.0648 4.1359-10.15 6.3293l-7.4275 3.9881-208.98-0.0355-208.98-0.0355-4.9654-4.0251z"/>
    <path d="m59.072 879.13c-14.855-1.8748-27.123-3.4984-27.263-3.608-0.13948-0.10963 0.7422-1.0372 1.9593-2.0613 7.9858-6.7196 10.384-12.582 7.7387-18.913-0.56194-1.3449-0.88949-2.5775-0.72789-2.7391s11.104 4.2136 24.317 9.7227l24.023 10.017v5.5736c0 5.353-0.06014 5.5706-1.5193 5.4957-0.8356-0.0429-13.673-1.6119-28.528-3.4867z"/>
    <path d="m100.6 872.86c-1.6712-0.47604-4.6338-0.88999-6.5835-0.91988l-3.545-0.0543v-4.2948c0-2.3621 0.19323-5.7045 0.4294-7.4275l0.4294-3.1328h6.9321 6.9321l0.74129 2.1264c1.4626 4.1955 0.35335 14.072-1.622 14.442-0.37138 0.0696-2.0426-0.26293-3.7138-0.73898z"/>
    <path d="m82.952 867.27c-5.7887-2.4548-5.8297-2.4893-5.745-4.8358 0.0469-1.2998-0.16058-3.047-0.46106-3.8826-0.54219-1.5078-0.49732-1.5193 5.9139-1.5193h6.4602v6.4147c0 3.5281-0.07596 6.3878-0.16881 6.355-0.09284-0.0328-2.7925-1.1722-5.9991-2.5321z"/>
    <path d="m133.01 859.73v-6.7523h6.3909c5.6275 0 6.4744 0.15602 7.0899 1.3061 0.92736 1.7328 0.88734 6.349-0.0831 9.5881l-0.78211 2.6105h-6.3078-6.3078v-6.7523z"/>
    <path d="m119.91 864.29c0.31304-1.207 0.57891-4.2457 0.59083-6.7528l0.0217-4.5583 5.6624 0.0005 5.6624 0.00051-0.4294 3.1328c-0.23617 1.723-0.4294 4.7616-0.4294 6.7523v3.6195h-5.8239-5.8239l0.56916-2.1945z"/>
    <path d="m133.01 844.2v-6.7523h5.0987 5.0987l0.9784 2.3416c1.1786 2.8209 1.2667 7.0905 0.19477 9.4432-0.74271 1.6301-1.0599 1.7198-6.0771 1.7198h-5.2935v-6.7523z"/>
    <path d="m122.73 848.76c0.62242-2.7979 0.62242-6.3177 0-9.1156l-0.48819-2.1945h4.7097 4.7097v6.7523 6.7523h-4.7097-4.7097l0.48819-2.1945z"/>
    <path d="m115.82 884.28c1.2284-3.4454 1.2205-8.7034-0.0193-12.79-0.55305-1.8231-1.0088-3.3906-1.0128-3.4835-0.004-0.0928 3.6389-0.16881 8.0955-0.16881h8.1028v8.0899c0 7.8561-0.0439 8.098-1.5193 8.371-0.8356 0.15462-3.6462 0.62292-6.2459 1.0407-2.5996 0.41776-5.5369 0.93534-6.5273 1.1502l-1.8007 0.39061 0.92701-2.6001z"/>
    <path d="m143.48 885.7c-2.5996-0.4926-6.2024-0.91431-8.0062-0.93713-2.7038-0.0342-3.2076-0.22903-2.8697-1.1096 0.22542-0.58744 0.40986-4.3856 0.40986-8.4404v-7.3723h8.7119 8.7119l0.74129 2.1264c0.95611 2.7427 0.94485 8.1136-0.0272 12.954-0.86241 4.2943-0.45528 4.1468-7.6719 2.7793z"/>
    <path d="m164.07 864.97c0.00019-0.0928 0.6079-1.7673 1.3505-3.721 1.6093-4.234 1.7044-7.5572 0.34459-12.04-0.55305-1.8231-1.0088-3.5426-1.0128-3.8211-0.004-0.27853 4.8941-0.50642 10.885-0.50642h10.892l-0.41853 2.5321c-0.2302 1.3927-0.42188 5.9505-0.42597 10.128l-0.007 7.5964h-10.804c-5.942 0-10.804-0.076-10.803-0.16881z"/>
    <path d="m187.7 855.01v-10.128h11.39 11.39l1.1777 4.1972c1.2925 4.6065 1.0561 9.6883-0.63938 13.746l-0.96664 2.3135h-11.176-11.176v-10.128z"/>
    <path d="m187.7 838.46v-5.0642h10.062 10.062l0.74128 2.1264c1.0164 2.9158 0.92992 4.7313-0.30984 6.5013-1.0037 1.433-1.4911 1.5007-10.804 1.5007h-9.7526v-5.0642z"/>
    <path d="m168.92 840.9c1.2-2.4254 1.2227-2.8257 0.28736-5.0642l-1.0156-2.4307h9.0812 9.0812v5.0642 5.0642h-9.3685-9.3685l1.303-2.6335z"/>
    <path d="m205.6 887.01c-3.7138-0.87194-9.411-1.789-12.661-2.038l-5.9083-0.45261 0.007-6.4866c0.004-3.5676 0.19577-7.6261 0.42597-9.0187l0.41853-2.5321h12.954 12.954l1.231 2.5321c1.9691 4.0505 2.1441 11.215 0.38771 15.868-0.80606 2.1354-1.8236 3.8445-2.2611 3.798-0.43754-0.0465-3.8341-0.79802-7.5478-1.67z"/>
    <path d="m161.37 888.5c0-0.14881 0.7521-1.8939 1.6713-3.878 3.0153-6.5082 2.8734-11.525-0.46056-16.277l-1.3027-1.8569h12.2 12.2v9.067 9.067l-3.8826 0.46258c-2.1354 0.25442-7.4946 1.1878-11.909 2.0743-8.8273 1.7724-8.5163 1.7234-8.5163 1.3411z"/>
    <path d="m243.58 840.13c0.98392-2.5048 0.98038-2.9174-0.0434-5.0642l-1.1146-2.3373h9.1047 9.1047v5.0642 5.0642h-9.0613-9.0613l1.0712-2.727z"/>
    <path d="m261.98 837.79v-5.0642h9.7082c7.6899 0 9.8784 0.20506 10.527 0.98636 1.199 1.4447 1.6447 6.0213 0.74931 7.6943-0.73922 1.3812-1.2395 1.4478-10.88 1.4478h-10.105v-5.0642z"/>
    <path d="m261.98 854.33v-10.128h11.376 11.376l1.1154 3.4537c1.394 4.3161 1.4196 8.7815 0.0764 13.305l-1.039 3.4987h-11.453-11.453v-10.128z"/>
    <path d="m239.76 861.08c1.5456-4.0677 1.6488-8.9219 0.27274-12.822-0.55706-1.5789-1.0128-3.1364-1.0128-3.461 0-0.32468 4.8617-0.59033 10.804-0.59033h10.804v4.9624c0 2.7293-0.19651 7.2871-0.43669 10.128l-0.4367 5.1661h-10.64-10.64l1.2856-3.3834z"/>
    <path d="m237.54 884.21c2.3756-5.0692 2.4936-10.703 0.3111-14.855l-1.5084-2.8697h11.806 11.806v9.0186 9.0186l-4.7752 0.4438c-2.6264 0.2441-7.4848 1.0474-10.797 1.785-9.1664 2.0418-9.0163 2.0975-6.8423-2.5413z"/>
    <path d="m281.56 886.94c-3.5281-0.87363-9.5675-1.7797-13.421-2.0135l-7.0062-0.42512 0.42266-4.0439c0.23247-2.2241 0.42267-6.2782 0.42267-9.009v-4.9652h13.205 13.205l1.3803 3.1203c1.7636 3.987 1.5289 12-0.47376 16.174l-1.3201 2.751-6.4147-1.5884z"/>
    <path d="m307.58 863.95c2.6192-6.1769 2.9873-10.331 1.3315-15.024-0.55707-1.5789-1.0128-3.1364-1.0128-3.461 0-0.32468 4.9056-0.59033 10.901-0.59033h10.901l-0.43045 4.5578c-0.23675 2.5068-0.43262 7.0646-0.43526 10.128l-0.005 5.5707h-10.876c-10.099 0-10.84-0.0844-10.375-1.1817z"/>
    <path d="m330.85 855.01v-10.128h11.386 11.386l1.1921 3.7901c1.3615 4.3287 1.1402 9.876-0.55593 13.935l-1.0577 2.5313h-11.176-11.176v-10.128z"/>
    <path d="m330.85 838.46v-5.0642h10.062 10.062l0.74128 2.1264c0.94447 2.7093 0.93485 4.1375-0.0423 6.2822l-0.78361 1.7198h-10.02-10.02v-5.0642z"/>
    <path d="m312.13 840.77c1.2894-2.6061 1.3038-2.8833 0.26383-5.0642l-1.1002-2.3072h9.1047 9.1047v5.0642 5.0642h-9.3685-9.3685l1.3641-2.757z"/>
    <path d="m352.12 887.69c-4.3819-1.2468-15.406-2.9609-19.075-2.966l-2.8697-0.004 0.005-4.5578c0.003-2.5068 0.19851-6.6088 0.43526-9.1156l0.43045-4.5578h12.986 12.986l1.5123 3.5154c1.2599 2.9287 1.4592 4.3656 1.1941 8.6092-0.31792 5.0894-2.0996 10.216-3.5092 10.098-0.39543-0.0332-2.2382-0.49267-4.0951-1.021z"/>
    <path d="m304.74 887.93c4.1277-9.4186 4.5087-11.593 2.8477-16.25-0.50545-1.4172-1.4508-3.1644-2.1007-3.8826-1.1641-1.2863-0.99905-1.3058 11.077-1.3058h12.259v9.067 9.067l-3.8826 0.46258c-2.1354 0.25442-7.4946 1.1878-11.909 2.0743-9.4158 1.8906-8.7563 1.8295-8.2909 0.76766z"/>
    <path d="m451.21 885.57-4.2202-0.23973v-4.256c0-2.3408-0.33899-5.2284-0.7533-6.4169-0.41432-1.1885-0.61887-2.2954-0.45456-2.4597 0.22032-0.22032 17.474 11.903 19.383 13.619 0.30332 0.27273-7.1184 0.14138-13.955-0.24697z"/>
    <path d="m464.73 878.68-6.9101-0.37425-7.7762-5.611-7.7762-5.611v-3.6734c0-2.0204 0.14827-3.6734 0.32949-3.6734s7.5497 3.9068 16.374 8.6819c8.8247 4.775 16.956 9.1688 18.071 9.7638l2.0257 1.0819-3.7138-0.10514c-2.0426-0.0578-6.8233-0.27355-10.624-0.47939z"/>
    <path d="m453.85 863.79c-7.5539-4.0884-14.022-7.4334-14.372-7.4334-0.51094 0 0.26397-2.2333 1.1322-3.263 0.27087-0.32125 48.471 15.436 49.131 16.062 0.30171 0.28604-3.9522 0.73528-9.4532 0.99831-5.501 0.26302-10.61 0.61134-11.352 0.77403-0.84258 0.18455-6.5157-2.4998-15.085-7.1376z"/>
    <path d="m416.4 853.49c0.60939-3.591 0.60939-4.8494 0-8.4404l-0.487-2.8697h4.7346 4.7346v7.0899 7.0899h-4.7346-4.7346l0.487-2.8697z"/>
    <path d="m426.73 849.27v-7.0899h5.0809c4.9004 0 5.1091 0.066 5.8742 1.8569 1.1195 2.6205 1.0775 9.8294-0.0653 11.206-0.70879 0.85404-2.0982 1.1166-5.9083 1.1166h-4.9816v-7.0899z"/>
    <path d="m426.73 864.46v-6.7523h6.3063c6.1025 0 6.3316 0.0556 7.0899 1.7198 0.97026 2.1295 1.0001 5.914 0.0729 9.2526l-0.7032 2.5321h-6.383-6.383v-6.7523z"/>
    <path d="m413.52 869.69c0.96622-3.2772 1.2118-9.0896 0.44469-10.523-0.77417-1.4466-0.72037-1.4624 4.9806-1.4624h5.7632v6.7523 6.7523h-5.8182c-5.7163 0-5.8104-0.0266-5.3703-1.5193z"/>
    <path d="m442.18 891.84c-0.17051-0.1705-3.7481-0.76021-7.9502-1.3105-4.2021-0.55026-7.7741-1.1343-7.9376-1.2979-0.16356-0.16356-0.0863-3.8278 0.17165-8.1428l0.46904-7.8454h8.6128 8.6128l0.74128 2.1264c1.9268 5.5271-0.28277 18.907-2.7198 16.47z"/>
    <path d="m439.56 891.4c-1.6712-0.3295-5.2657-0.87748-7.9878-1.2177-2.7221-0.34025-5.1081-0.77755-5.3024-0.97177-0.19422-0.19422-0.13358-3.8669 0.13475-8.1615l0.48789-7.8084h8.631 8.631l0.74128 2.1264c1.4238 4.0842 0.23913 16.882-1.5464 16.706-0.41295-0.0407-2.1182-0.34358-3.7894-0.67309z"/>
    <path d="m366.25 891.04c1.9957-5.1603 2.0118-11.652 0.0413-16.621-0.4307-1.0861 0.19235-1.1817 7.7064-1.1817h8.175v8.1028 8.1028h-1.7165c-1.6348 0-10.689 1.6726-13.409 2.4771-1.0352 0.30614-1.1894 0.13573-0.79666-0.8799z"/>
    <path d="m384.2 864.46v-6.7523h6.3486 6.3486l0.74128 2.1264c0.93786 2.6904 0.93463 4.6105-0.0141 8.3782l-0.75539 2.9999h-6.3345-6.3345v-6.7523z"/>
    <path d="m371.29 867.19c0.82138-3.1527 0.89057-4.6138 0.31977-6.7523l-0.72842-2.729h5.6456 5.6456v6.7523 6.7523h-5.9654-5.9654l1.0482-4.0233z"/>
    <path d="m384.2 849.27v-7.0899h4.9558c4.7304 0 4.9937 0.083 5.7875 1.8254 1.4713 3.2292 1.6797 7.8502 0.46035 10.208-1.097 2.1213-1.169 2.1464-6.1568 2.1464h-5.0469v-7.0899z"/>
    <path d="m393.99 890.99c-3.3424-0.52068-7.0646-1.0957-8.2716-1.2778l-2.1945-0.3311v-8.0722-8.0722h9.0839 9.0839l0.70321 2.5321c0.38676 1.3927 0.6756 3.8994 0.64186 5.5706-0.0821 4.0682-1.4545 10.337-2.2944 10.481-0.37137 0.0637-3.4099-0.31023-6.7523-0.83091z"/>
   </g>
   <path fill="none" d="m408.54 891.47c1.534-3.7828 1.6456-4.3475 1.6508-8.356 0.005-3.9578-0.39658-5.9266-1.9805-9.7064-0.23196-0.55358 0.28683-0.59083 8.2289-0.59083h8.4765v8.3919 8.392l-3.1229 0.23143c-1.7176 0.1273-5.1419 0.68084-7.6096 1.2301-5.3266 1.1856-5.9777 1.2327-5.6432 0.40783z"/>
   <path fill="none" d="m372.93 856.37c0.002-0.14437 0.2299-1.0083 0.50643-1.9198 0.65912-2.1727 0.66412-7.9965 0.009-10.174-0.27172-0.90287-0.41142-1.7246-0.31045-1.8261 0.10097-0.10151 2.3014-0.23408 4.8898-0.2946l4.7062-0.11004-0.0912 7.2-0.0912 7.2-4.811 0.0937c-2.6461 0.0515-4.8094-0.0245-4.8074-0.16881z"/>
   <path fill="#fff" d="m372.62 856.75c0-0.009 0.14129-0.44122 0.31397-0.96009 0.50338-1.5125 0.83144-2.9594 1.0225-4.5095 0.10834-0.87901 0.1086-3.2255 0.00047-4.0928-0.21922-1.7582-0.59506-3.2182-1.2468-4.8435l-0.0889-0.22156h5.1124 5.1124l-0.0272 1.8252c-0.015 1.0039-0.0471 4.1041-0.0714 6.8895-0.0243 2.7853-0.0548 5.2589-0.0678 5.4968l-0.0236 0.43257h-5.018c-2.7599 0-5.018-0.008-5.018-0.0167z"/>
  </g>
  <path d="m381.61 775.51c1.4346-4.4688 1.1328-11.804-0.66685-16.206-0.44514-1.0888 0.1926-1.1816 8.1179-1.1816h8.601l-0.41853 2.5321c-0.23019 1.3927-0.42187 5.1908-0.42596 8.4404l-0.007 5.9083-2.8697 0.0105c-1.5784 0.006-4.6929 0.45076-6.9211 0.98879-5.6166 1.3562-5.9919 1.322-5.4092-0.49292z" fill="#fff"/>
 </g>
</svg>
