<?xml version="1.0" encoding="UTF-8" standalone="no"?>
<svg
   xmlns:dc="http://purl.org/dc/elements/1.1/"
   xmlns:cc="http://creativecommons.org/ns#"
   xmlns:rdf="http://www.w3.org/1999/02/22-rdf-syntax-ns#"
   xmlns:svg="http://www.w3.org/2000/svg"
   xmlns="http://www.w3.org/2000/svg"
   version="1.1"
   id="svg2"
   viewBox="0 0 48 48"
   height="48"
   width="48">
  <defs
     id="defs4" />
  <metadata
     id="metadata7">
    <rdf:RDF>
      <cc:Work
         rdf:about="">
        <dc:format>image/svg+xml</dc:format>
        <dc:type
           rdf:resource="http://purl.org/dc/dcmitype/StillImage" />
        <dc:title></dc:title>
      </cc:Work>
    </rdf:RDF>
  </metadata>
  <g
     transform="translate(0,-1004.3622)"
     id="layer1">
    <rect
       y="92.362206"
       x="40"
       height="40"
       width="280"
       id="rect3338"
       style="fill:none" />
    <g
       style="fill:#ffffff"
       transform="matrix(0.58514347,0,0,0.52169296,0.54726106,1005.0349)"
       id="g3376">
      <path
         style="fill:#ffffff;fill-rule:evenodd;stroke:#000000;stroke-width:1px;stroke-linecap:butt;stroke-linejoin:miter;stroke-opacity:1"
         d="M -7.3869032e-8,60.219348 20,90.219348 l 40,0 20,-30 z"
         id="path3364" />
      <path
         style="fill:#ffffff;fill-rule:evenodd;stroke:#000000;stroke-width:1px;stroke-linecap:butt;stroke-linejoin:miter;stroke-opacity:1"
         d="M 70,40.219348 40,0.21934757 40,40.219348 Z"
         id="path3372" />
      <path
         style="fill:#ffffff;fill-rule:evenodd;stroke:#000000;stroke-width:1px;stroke-linecap:butt;stroke-linejoin:miter;stroke-opacity:1"
         d="m 40,40.219348 0,20"
         id="path3374" />
    </g>
    <path
       transform="translate(0,1004.3622)"
       id="path4200"
       d="M 7.0183499,39.955576 1.6028266,32.723434 23.777158,32.631423 c 12.195882,-0.0506 22.242362,-0.02398 22.325512,0.05917 0.08315,0.08315 -2.275811,3.379018 -5.242136,7.324153 l -5.39331,7.172974 -11.516676,0 -11.516675,0 -5.4155231,-7.232143 z"
       style="fill:#ffffff" />
    <path
       transform="translate(0,1004.3622)"
       id="path4202"
       d="m 24.40932,11.580576 c 0,-5.3732746 0.134563,-9.3876121 0.308271,-9.1964282 0.169549,0.1866071 3.784127,4.4776786 8.032395,9.5357142 l 7.724123,9.196429 -8.032395,0 -8.032394,0 0,-9.535715 z"
       style="fill:#ffffff" />
  </g>
</svg>
