<?xml version="1.0" encoding="UTF-8" standalone="no"?>
<!-- Created with Inkscape (http://www.inkscape.org/) -->
<svg xmlns:rdf="http://www.w3.org/1999/02/22-rdf-syntax-ns#" xmlns="http://www.w3.org/2000/svg" height="99.817" viewBox="0 0 300.80093 99.816635" width="300.8" version="1.1" xmlns:cc="http://creativecommons.org/ns#" xmlns:dc="http://purl.org/dc/elements/1.1/">
 <metadata>
  <rdf:RDF>
   <cc:Work rdf:about="">
    <dc:format>image/svg+xml</dc:format>
    <dc:type rdf:resource="http://purl.org/dc/dcmitype/StillImage"/>
    <dc:title/>
   </cc:Work>
  </rdf:RDF>
 </metadata>
 <g transform="translate(-281.76 -254.84)">
  <g transform="translate(97.233 -10.128)">
   <g stroke="#000" fill="none">
    <path d="m185.02 332v12.891c3.1978 6.4487 8.0668 11.185 13.743 15.095 74.972 3.1546 149.61 7.8584 226.97 0 11.724-1.635 23.758-1.684 33.09-15.572 2.3503-2.4974 1.7687-5.3088 0-9.0718l-55.926 6.207h-125.37v-8.5943z" stroke-width=".98798px"/>
    <g stroke-width="1px">
     <path d="m458.82 335.34 26.2-20.374"/>
     <path d="m277.53 332.95v-67.987"/>
     <path d="m402.9 341.55v-68.547"/>
     <path d="m277.53 327.43-86.066-6.207 11.936-27.215 74.129 15.756"/>
     <path d="m368.12 322.18h71.619"/>
     <path d="m432.98 307.51-60.16-0.47746"/>
    </g>
    <path d="m383.55 281.59 38.682 0.47746" stroke-width=".77756px"/>
    <g stroke-width="1px">
     <path d="m368.12 322.18c7.8856 8.6378 1.9259 10.353 0.47746 14.324 26.372-3.1165 47.023-0.51155 68.521 1.2466 3.6753-5.1902 5.2928-10.38 2.6204-15.57"/>
     <path d="m372.82 307.04c3.7862 5.3346 2.5472 10.25 1.0357 15.143"/>
     <path d="m432.98 307.51c4.3638 9.0664 0.58983 9.995 0.55821 14.666"/>
    </g>
    <path d="m377.97 295.2 49.855 0.47746" stroke-width=".88274px"/>
    <g stroke-width="1px">
     <path d="m377.97 295.2c1.792 4.1209 3.0847 8.1964 0 11.874"/>
     <path d="m427.82 295.68c2.1016 4.2664 0.67533 7.9448 0.27534 11.794"/>
     <path d="m383.55 281.59c1.3851 4.5541 3.5002 9.1083 0.13386 13.662"/>
     <path d="m422.24 282.07c2.2927 6.4409 1.5544 10.23 0.28838 13.557"/>
     <path d="m423.72 289.71 61.301 25.259"/>
     <path d="m427.82 295.68 44.099 29.474"/>
     <path d="m475.29 310.95-25.413-0.53799"/>
     <path d="m435.08 314.52 32.02 14.384-27.355-6.7276"/>
     <path d="m462.82 319.07-16.472 0.51538"/>
     <path d="m277.53 309.76h41.416"/>
     <path d="m307.13 294.01h-59.205"/>
     <path d="m298.3 283.03h-41.539"/>
     <path d="m293.16 273h-28.648"/>
     <path d="m307.13 294.01c2.5718 5.2521 3.1456 10.504 0 15.756"/>
     <path d="m247.92 294.01c1.122 3.2144 3.3154 6.4287 0.84185 9.6431"/>
     <path d="m298.3 283.03c2.6176 3.2882 5.9747 6.4627 0.59311 10.982"/>
     <path d="m256.76 283.03c1.4422 1.9024 3.1407 3.5164-0.3618 10.982"/>
     <path d="m293.16 273c0.89214 3.3422 2.7227 6.6844 0 10.027"/>
     <path d="m264.51 273c2.7227 5.6111 0.89214 7.4279 0 10.027"/>
     <path d="m318.94 309.76c5.966 7.2471 2.1124 12.228 0.23873 17.666-23.151-2.3239-27.456-2.5392-41.655-2.626"/>
    </g>
   </g>
   <g fill="#fff">
    <path d="m310.83 325.82c-2.414-0.29008-10.694-0.90701-18.4-1.371l-14.011-0.84354v-6.6394-6.6394h19.904 19.904l1.0518 1.6052c2.1495 3.2805 2.3668 5.6436 0.94289 10.254-1.5104 4.8902-0.90183 4.6547-9.3911 3.6346z"/>
    <path d="m278.42 301.89v-7.0899h14.114 14.114l0.74128 2.1264c0.96923 2.7803 0.94718 8.1618-0.0423 10.334l-0.78361 1.7198h-14.071-14.071v-7.0899z"/>
    <path d="m278.42 288.72v-4.7266h9.7418c9.72 0 9.745 0.004 11.141 1.7791 1.7297 2.199 1.8019 5.0749 0.16465 6.5566-1.0309 0.93295-2.8708 1.1175-11.141 1.1175h-9.9065v-4.7266z"/>
    <path d="m278.42 277.92v-4.0514h7.0639 7.0639l0.73622 2.7341c1.3625 5.0598 0.93198 5.3686-7.482 5.3686h-7.382v-4.0514z"/>
    <path d="m266.49 277.92v-4.0514h4.9517 4.9517v4.0514 4.0514h-4.9517-4.9517v-4.0514z"/>
    <path d="m258.56 290.33c0.5165-1.7162 0.75768-3.8432 0.53595-4.7266l-0.40315-1.6062h8.8512 8.8512v4.7266 4.7266h-9.3872-9.3871l0.93909-3.1204z"/>
    <path d="m261.98 305.7-11.379-2.4712-0.1694-3.0309c-0.0932-1.667-0.39862-3.5627-0.67878-4.2126-0.47552-1.1031 0.39323-1.1816 13.067-1.1816h13.577v6.7523c0 6.5725-0.0404 6.7505-1.5193 6.6838-0.8356-0.0377-6.6397-1.1806-12.898-2.5397z"/>
    <path d="m233.05 323.48c-21.428-1.5885-39.247-2.9946-39.596-3.1246-1.0372-0.38572 10.26-25.242 11.403-25.089 1.1342 0.15094 60.169 12.62 66.985 14.148l4.5578 1.0219v8.0486 8.0486l-2.1945-0.0828c-1.207-0.0455-19.727-1.3824-41.155-2.9709z"/>
    <path d="m305.43 363.27c-23.704-0.56952-98.195-3.4715-103.75-4.0417-3.0309-0.31135-3.989-0.82311-7.5152-4.0141-2.2228-2.0115-4.9895-5.1347-6.1483-6.9405-1.9597-3.0539-2.1069-3.7078-2.1069-9.3595v-6.0762l32.917 0.23654c18.105 0.1301 38.463 0.41716 45.24 0.63792l12.323 0.40138v3.9782 3.9782l65.329-0.0363 65.329-0.0363 25.534-2.8756c24.016-2.7047 25.572-2.8055 26.165-1.6962 2.7847 5.2032-6.4703 15.65-16.65 18.794-7.4578 2.3035-29.544 4.5881-58.682 6.0701-14.425 0.73369-62.889 1.3425-77.989 0.97969z"/>
    <path d="m371.58 333.17c1.7033-2.7938 1.723-4.3171 0.0973-7.506l-1.2777-2.5061h15.795 15.795l-0.00038 5.5706-0.00038 5.5706-9.7154 0.0758c-5.3434 0.0417-12.494 0.29319-15.889 0.55883l-6.1741 0.483 1.3699-2.2469z"/>
    <path d="m375.24 319.95c1.0215-3.4773 1.0653-6.2091 0.14778-9.219l-1.0092-3.3108 9.5871 0.43859c5.2729 0.24122 11.486 0.4397 13.807 0.44106l4.2202 0.002v6.4147 6.4147h-13.55c-12.587 0-13.525-0.084-13.203-1.1817z"/>
    <path d="m380.23 302.66c0.1688-2.0355-0.0387-4.2498-0.47463-5.0642l-0.77457-1.4473h11.503 11.503v5.0642 5.0642h-11.028-11.028l0.29994-3.6169z"/>
    <path d="m385.88 292.39c0.44883-1.6255 0.43107-3.5089-0.0544-5.7727-0.39633-1.848-0.7206-3.497-0.7206-3.6644s3.7982-0.30437 8.4404-0.30437h8.4404v6.0771 6.0771h-8.386-8.386l0.66617-2.4127z"/>
    <path d="m404.02 288.72v-6.0771h8.7463 8.7463l0.7032 2.5321c0.78815 2.838 0.89353 5.8326 0.28514 8.1028-0.39651 1.4796-0.64324 1.5193-9.444 1.5193h-9.0369v-6.0771z"/>
    <path d="m413.64 306.45-9.622-0.20742v-5.0457-5.0457h11.496 11.496l0.65908 1.7335c0.36249 0.95343 0.46506 3.3843 0.22794 5.4018-0.42375 3.6054-0.4672 3.6658-2.5327 3.5196-1.1558-0.0818-6.4314-0.24207-11.724-0.35616z"/>
    <path d="m404.02 314.71v-6.4281l14.346 0.18224 14.346 0.18223 0.89948 2.7009c0.73027 2.1928 0.74221 3.3678 0.0635 6.2459l-0.83603 3.545h-14.41-14.41v-6.4281z"/>
    <path d="m417.35 335.41-13.336-1.0362v-5.6076-5.6076h17.573 17.573l0.67349 1.7714c0.81673 2.1482 0.22836 5.7885-1.4872 9.2011-1.4977 2.9793-0.16059 2.8979-20.996 1.2789z"/>
    <path d="m446.89 323.12c-4.0852-1.0709-8.567-1.9548-9.9596-1.9644-2.7679-0.019-2.7894-0.0606-1.6367-3.1651l0.79267-2.1348 8.1028 3.6493c14.594 6.5728 14.742 6.7715 2.7009 3.615z"/>
    <path d="m440.77 316.22c-4.6623-2.0728-4.7993-2.2047-5.7408-5.5248-0.91271-3.2184-1.0971-3.4124-3.428-3.6069l-2.4634-0.20555 0.36164-4.1834c0.1989-2.3009 0.4113-4.2489 0.472-4.3289s6.9322 4.4016 15.27 9.9591l15.16 10.105-7.4275-0.0453c-6.8142-0.0415-7.8219-0.2206-12.204-2.1688z"/>
    <path d="m459.05 309.69-9.4532-0.37407-10.466-7.0578c-6.5517-4.4182-11.355-7.1961-12.842-7.4275-2.1394-0.3329-2.3411-0.54571-2.0257-2.1369l0.35028-1.7672 22.62 9.3504c12.441 5.1428 22.924 9.4843 23.295 9.6479 0.37138 0.16358 0.0675 0.26184-0.67523 0.21837-0.74276-0.0435-5.6044-0.24738-10.804-0.45312z"/>
   </g>
  </g>
 </g>
</svg>
