<?xml version="1.0" encoding="UTF-8" standalone="no"?>
<!-- Created with Inkscape (http://www.inkscape.org/) -->
<svg xmlns:rdf="http://www.w3.org/1999/02/22-rdf-syntax-ns#" xmlns="http://www.w3.org/2000/svg" height="100.5" viewBox="0 0 300.75 100.50011" width="300.75" version="1.1" xmlns:cc="http://creativecommons.org/ns#" xmlns:dc="http://purl.org/dc/elements/1.1/">
 <metadata>
  <rdf:RDF>
   <cc:Work rdf:about="">
    <dc:format>image/svg+xml</dc:format>
    <dc:type rdf:resource="http://purl.org/dc/dcmitype/StillImage"/>
    <dc:title/>
   </cc:Work>
  </rdf:RDF>
 </metadata>
 <g transform="translate(-134.55 -434.85)">
  <g stroke="#000" stroke-width="1px" fill="none">
   <path d="m135.05 510.78c75.916 4.6748 154.33 7.7623 249.79 0v5.7295c4.9671-3.6803 9.9341-4.0208 14.901-3.272-12.272 8.7329-15.263 15.146-17.527 21.377l-231.81 0.23873-15.354-6.8845z"/>
   <path d="m384.83 516.5 50.213-28.991"/>
   <path d="m359.99 512.58v-70.305"/>
   <path d="m270.1 515.51v-80.658"/>
   <path d="m184.88 513.5v-55.014"/>
   <path d="m184.88 511.01-41.051-7.2922 6.0771-31.061 34.974 20.257"/>
   <path d="m200.41 472.66h-31.061"/>
   <path d="m200.41 472.66c4.1025 11.322 0.84428 12.83 0 17.556-15.83-6.4164-17.36-2.4333-24.262-2.3568"/>
   <path d="m169.34 472.66c2.6926 3.7539 4.4186 7.5078 0 11.262"/>
   <path d="m253.86 448.23h32.467"/>
   <path d="m293.97 463.51h-47.746"/>
   <path d="m299.22 487.38h-58.25"/>
   <path d="m299.22 487.38c3.5103 6.3661 6.0038 14.165-0.47746 20.531-20.248-3.467-38.031-2.2655-57.149-0.95492 3.8514-4.0897 7.9299-8.0433-0.62348-19.576"/>
   <path d="m246.22 463.51c5.4756 11.087 3.3222 17.814 0 23.873"/>
   <path d="m293.97 463.51c4.4134 7.406 5.7358 15.198 0 23.873"/>
   <path d="m253.86 448.23c3.3655 8.4584 1.5858 11.772 0 15.279"/>
   <path d="m286.33 448.23c3.1831 5.0929 3.1831 10.186 0 15.279"/>
   <path d="m344.71 453.48h30.557"/>
   <path d="m338.27 466.37h43.449"/>
   <path d="m331.58 485.47h56.818"/>
   <path d="m331.58 485.47c9.2642 6.5253 5.8468 13.051 0 19.576 20.53-2.4321 39.405-2.6588 56.117 0 3.8163-6.5253 8.029-13.051 0.70072-19.576"/>
   <path d="m338.27 466.37c6.3661 6.3661 6.3661 12.732 0 19.098"/>
   <path d="m381.71 466.37c5.6711 6.3661 3.0715 12.732 0 19.098"/>
   <path d="m344.71 453.48c2.2308 5.4125 2.8464 10.017 0 12.891"/>
   <path d="m375.27 453.48c4.2695 4.2971 3.3461 8.5943 0 12.891"/>
   <path d="m384.43 470.81 50.62 16.702"/>
   <path d="m384.58 478.24 31.486 20.232"/>
   <path d="m426.33 484.64-22.442 6.0134"/>
   <path d="m391.82 496.85 19.246-1.5812"/>
  </g>
  <g fill="#fff">
   <path d="m143.36 530.9-7.1619-3.2402-0.13123-8.0385-0.13123-8.0385 6.0995 0.33373c3.3547 0.18355 11.363 0.63715 17.797 1.008 37.864 2.1826 69.182 3.0881 106.96 3.0926 38.42 0.005 67.142-0.90099 98.589-3.1085 5.5147-0.38712 12.014-0.8438 14.443-1.0149l4.4165-0.31102v2.9352c0 1.6144 0.10004 2.9352 0.2223 2.9352s1.6108-0.7632 3.3078-1.696c2.4817-1.3641 3.7696-1.7464 6.5815-1.9533l3.496-0.2573-1.6711 1.3389c-6.1447 4.9233-11.274 11.156-13.41 16.295l-0.97686 2.3506-24.677 0.31588c-13.572 0.17374-65.607 0.3107-115.63 0.30437l-90.956-0.0115-7.1619-3.2402z"/>
   <path d="m164.44 506.69c-10.73-1.9292-19.561-3.5736-19.625-3.6543-0.14141-0.17776 5.4731-28.714 5.6927-28.934 0.0852-0.0852 7.6959 4.2085 16.913 9.5416l16.758 9.6965 0.005 8.4749c0.003 4.6612-0.0487 8.4542-0.11434 8.4289-0.0657-0.0253-8.8984-1.6245-19.628-3.5537z"/>
   <path d="m173.33 485.44c-1.3787-0.82165-2.5067-1.5784-2.5067-1.6817 0-0.10328 0.42891-0.89126 0.95313-1.7511 1.2158-1.9941 1.2132-4.2022-0.008-6.5956l-0.96462-1.8908h6.6941 6.6942v6.1513c0 7.0591 0.40595 6.5182-5.2521 6.9984-2.8622 0.24293-3.2984 0.14725-5.6102-1.2305z"/>
   <path d="m197.8 488.45c-3.4411-1.2628-8.5592-2.498-10.385-2.5063l-1.7905-0.008v-6.207-6.207h7.1486 7.1486l0.7066 2.5067c1.2558 4.4549 1.343 5.8617 0.55426 8.9405-1.0975 4.2838-1.1234 4.3104-3.3828 3.4813z"/>
   <path d="m247.85 486.06c0.14972-0.45956 0.73375-2.1247 1.2978-3.7003 1.3347-3.728 1.1408-10.468-0.4253-14.785-0.56836-1.5665-1.0334-2.9094-1.0334-2.9841s4.8343-0.13591 10.743-0.13591h10.743v11.22 11.22h-10.799c-10.07 0-10.78-0.0564-10.526-0.83555z"/>
   <path d="m270.61 475.67v-11.22h11.639 11.639l0.96686 2.2679c1.7299 4.0577 2.1274 6.0944 1.9427 9.9542-0.14369 3.0029-0.49058 4.4305-1.6999 6.9957l-1.5194 3.2228h-11.484-11.484v-11.22z"/>
   <path d="m270.61 456.1v-6.9232h7.8132 7.8132l0.78106 2.0452c1.0657 2.7905 0.99835 6.9179-0.1569 9.613l-0.93795 2.1882h-7.6563-7.6563v-6.9232z"/>
   <path d="m255.6 461.23c0.84175-2.3587 0.8472-7.0543 0.0114-9.8314l-0.66946-2.2245h7.1152 7.1152v6.9232 6.9232h-7.1056-7.1056l0.63897-1.7905z"/>
   <path d="m243.87 505.84c0-0.15817 0.53146-1.0707 1.181-2.0279 2.6687-3.9326 2.3253-6.4862-2.0349-15.133-0.0993-0.19696 5.7459-0.3581 12.989-0.3581h13.17v8.2801 8.2801l-8.9758 0.31213c-4.9367 0.17167-10.63 0.45199-12.653 0.62294-2.0223 0.17095-3.6769 0.1814-3.6769 0.0232z"/>
   <path d="m291.85 506.21c-2.3634-0.34028-8.1108-0.7769-12.772-0.97027l-8.4749-0.35158v-8.2802-8.2802h14.077 14.077l1.1363 2.2679c2.9386 5.8651 2.7342 11.788-0.53562 15.517-0.83212 0.94904-1.5267 0.95801-7.5078 0.0969z"/>
   <path d="m333.9 503.52c0.2078-0.35083 0.85534-1.2824 1.439-2.0702 3.4982-4.722 3.4299-9.8661-0.18242-13.727l-1.2285-1.313h12.742 12.742v8.1168 8.1168l-4.894 0.004c-4.5397 0.004-12.348 0.51923-18.436 1.217-2.0608 0.23621-2.4865 0.16903-2.1824-0.34443v-0.00002z"/>
   <path d="m382.09 503.56c-1.313-0.21784-6.6307-0.54379-11.817-0.72435l-9.4298-0.32828v-8.0449-8.0449h13.822 13.822l1.1711 1.5518c2.6835 3.5559 2.5496 7.084-0.4883 12.865-1.8963 3.6087-1.8541 3.5925-7.0799 2.7255z"/>
   <path d="m360.85 476.15v-8.833h10.531 10.531l1.2281 2.6825c1.5378 3.3589 1.365 6.9903-0.55965 11.761l-1.3003 3.2228h-10.215-10.215v-8.833z"/>
   <path d="m341.53 482.57c2.7688-4.1145 2.8815-8.7408 0.31353-12.872l-1.4825-2.3849h9.5295 9.5295v8.833 8.833h-9.7556-9.7556l1.6213-2.4092z"/>
   <path d="m346.85 463.87c0.67414-1.9567 0.48218-4.6101-0.60573-8.3724l-0.31064-1.0743h6.7401 6.7401v5.7295 5.7295h-6.6286-6.6286l0.6933-2.0123z"/>
   <path d="m360.85 460.15v-5.7295h7.0879c7.938 0 8.2513 0.12087 9.1977 3.5486 0.54518 1.9745-0.0345 4.39-1.5831 6.5975l-0.92116 1.313h-6.8907-6.8907v-5.7295z"/>
   <path d="m394.63 483.87-8.9507-5.8115-0.002-3.0352c-0.001-2.2299 0.15669-2.9758 0.59516-2.8111 0.32825 0.12325 8.7077 2.8718 18.621 6.1078 9.9133 3.2361 18.024 6.024 18.024 6.1955 0 0.30404-18.081 5.2776-18.916 5.2034-0.23151-0.0206-4.4487-2.6526-9.3716-5.8489z"/>
   <path d="m393.01 494.87c0.53652-2.1377-0.56613-5.8047-2.3841-7.9286-1.6427-1.9192-1.7481-1.9628-4.7346-1.9628h-3.0545l0.53145-1.313c0.29229-0.72216 0.77552-1.9818 1.0738-2.7991l0.54239-1.4861 11.448 7.3578c6.2962 4.0468 11.509 7.5324 11.585 7.7458 0.0753 0.21335-1.9658 0.53359-4.5359 0.71164-2.57 0.17805-6.0472 0.45583-7.727 0.61728l-3.0542 0.29355 0.31032-1.2364z"/>
  </g>
 </g>
</svg>
