<?xml version="1.0" encoding="UTF-8" standalone="no"?>
<!-- Created with Inkscape (http://www.inkscape.org/) -->
<svg xmlns:rdf="http://www.w3.org/1999/02/22-rdf-syntax-ns#" xmlns="http://www.w3.org/2000/svg" height="101.27" viewBox="0 0 201.38208 101.26556" width="201.38" version="1.1" xmlns:cc="http://creativecommons.org/ns#" xmlns:dc="http://purl.org/dc/elements/1.1/">
 <metadata>
  <rdf:RDF>
   <cc:Work rdf:about="">
    <dc:format>image/svg+xml</dc:format>
    <dc:type rdf:resource="http://purl.org/dc/dcmitype/StillImage"/>
    <dc:title/>
   </cc:Work>
  </rdf:RDF>
 </metadata>
 <g transform="translate(-105.92 -787.69)">
  <g transform="translate(10.466 -4.389)">
   <g stroke="#000" stroke-width="1px" fill="none">
    <path d="m96.558 870.03c10.796 1.8966 3.4503 2.6741 100 2.7009h33.02c14.481 0.0941 24.27-2.1572 33.424-4.7266 0 0 4.7264 23.774-3.3762 24.374-13.892 1.0282-156.99 0-156.99 0l2.3633-8.8439-8.4404-0.67523v-11.479z"/>
    <path d="m263 868.01 33.556-8.9912"/>
    <path d="m142.14 872.57 0.33631-80.189"/>
    <path d="m142.16 867.67-45.6-4.0543c9.4601-9.4831 15.85-22.377 17.218-40.851l28.529 9.7092"/>
    <path d="m113.78 822.77c11.445-6.9967 19.835-19.085 28.697-30.385"/>
    <path d="m224.51 872.74v-60.771l72.044 47.053"/>
    <path d="m224.51 811.96 51.117 52.66"/>
    <path d="m224.51 820.41 41.976 46.669"/>
    <path d="m262.91 863.09-38.397-0.82554"/>
    <path d="m267.6 856.35-10.901-0.16276"/>
    <path d="m237.16 825 4.9366 14.961"/>
    <path d="m284.95 851.44-24.863-2.8239"/>
    <path d="m229.88 862.38-0.75551-36.849"/>
    <path d="m224.51 826.14-23.971-12.154c1.9069 18.808 3.472 37.459-6.0771 50.98h30.048"/>
   </g>
   <g fill="#fff">
    <path d="m131.03 891.96-27.568-0.10467 1.1378-4.2692c0.62581-2.3481 1.0686-4.3813 0.98389-4.5183-0.0847-0.137-1.9785-0.35871-4.2086-0.4927l-4.0546-0.24362v-5.7022c0-3.1362 0.06087-5.7022 0.13526-5.7022s1.8678 0.29619 3.9853 0.65819c7.9651 1.3617 15.563 1.5083 78.933 1.5226 56.326 0.0128 60.551-0.0262 64.653-0.5966 4.5229-0.62888 10.254-1.7707 14.682-2.925 1.3905-0.36247 2.6297-0.55093 2.7537-0.41879 0.33194 0.35367 1.302 9.3816 1.2991 12.089-0.003 3.1776-0.56315 6.4236-1.4124 8.1919-1.3271 2.7631 3.1506 2.5467-53.447 2.5832-27.668 0.0179-62.71-0.0146-77.873-0.0722z"/>
    <path d="m129.5 891.96-26.055-0.10418 1.1434-4.2903c0.78453-2.9436 1.0278-4.3618 0.77508-4.518-0.2026-0.12521-2.0961-0.33561-4.2077-0.46755l-3.8394-0.2399v-5.7062c0-3.1384 0.06087-5.7062 0.13526-5.7062s1.8818 0.29859 4.0165 0.66353c2.1347 0.36493 6.8975 0.8324 10.584 1.0388 9.5164 0.53282 117.41 0.85091 125.88 0.37112 6.8359-0.38713 13.639-1.4114 20.257-3.05 2.2283-0.5517 4.1511-0.8995 4.273-0.7729 0.32841 0.34118 1.2981 9.3852 1.2952 12.079-0.003 3.0381-0.55323 6.3522-1.3546 8.1639-1.239 2.801 3.4378 2.5789-55.025 2.6126-28.503 0.0164-63.549-0.017-77.879-0.0743z"/>
    <path d="m119.26 865c-10.863-0.99241-20.112-1.8114-20.553-1.8199-0.76763-0.0149-0.74528-0.0781 0.51254-1.4504 7.8527-8.5674 13.225-21.172 14.718-34.531 0.24359-2.1798 0.53352-3.504 0.74977-3.4244 0.19393 0.0714 6.3157 2.1573 13.604 4.6353l13.251 4.5054v16.982 16.982l-1.266-0.037c-0.69634-0.0203-10.154-0.84894-21.017-1.8414z"/>
    <path d="m128.38 827.06c-6.9633-2.38-12.633-4.436-12.6-4.5687 0.0336-0.13276 0.94512-0.88937 2.0257-1.6814 5.1816-3.7978 10.122-8.9286 17.408-18.077 2.5877-3.2496 5.1392-6.44 5.67-7.0899l0.96512-1.1817 0.0178 7.288c0.0248 10.169-0.38821 29.685-0.62766 29.66-0.10924-0.0117-5.8959-1.9685-12.859-4.3486z"/>
    <path d="m197.23 861.73c1.7813-3.2496 3.5654-8.6856 4.4712-13.623 0.63929-3.4848 0.73616-5.2025 0.73103-12.964-0.004-5.7876-0.19979-10.848-0.55501-14.331-0.302-2.9612-0.51171-5.4214-0.466-5.4671 0.0457-0.0457 5.129 2.4531 11.296 5.5528l11.213 5.6359 0.004 18.822 0.004 18.822h-14.02-14.02l1.3417-2.4477z"/>
    <path d="m244.35 862.07c-7.4274-0.17056-13.58-0.38592-13.673-0.47857-0.1299-0.12938-0.94097-33.767-0.8228-34.124 0.0218-0.0659 7.4351 8.1471 30.142 33.393l1.4662 1.6301-1.8038-0.0553c-0.99207-0.0304-7.8807-0.19485-15.308-0.36542z"/>
    <path d="m257.81 855.44c-0.85254-0.1676-2.4506-1.7541-8.1049-8.0464l-7.043-7.8376-1.9312-5.8156c-1.0622-3.1986-1.8968-5.847-1.8547-5.8854 0.10173-0.0929 24.022 24.5 25.677 26.4l1.2923 1.4829-3.4868-0.0445c-1.9178-0.0244-3.9647-0.13839-4.5487-0.25321z"/>
    <path d="m270.18 849.14-9.622-1.1226-6.4147-6.5499c-13.433-13.716-24.212-24.894-24.006-24.894 0.23574 0 50.818 32.966 51.336 33.457 0.46612 0.44208-0.56592 0.36067-11.293-0.89083z"/>
   </g>
  </g>
 </g>
</svg>
